HIERARCHY
ROOT Hips
{
  OFFSET 2.26061 22.2878 23.7974
  CHANNELS 6 Xposition Yposition Zposition Zrotation Xrotation Yrotation
  JOINT LeftUpLeg
  {
    OFFSET 8.64259 1.95398 -2.38835
    CHANNELS 3 Zrotation Xrotation Yrotation
    JOINT LeftLeg
    {
      OFFSET 43.7702 0 0
      CHANNELS 3 Zrotation Xrotation Yrotation
      JOINT LeftFoot
      {
        OFFSET 40.6238 0 0
        CHANNELS 3 Zrotation Xrotation Yrotation
        JOINT LeftToeBase
        {
          OFFSET 12.7242 0 0
          CHANNELS 3 Zrotation Xrotation Yrotation
          End Site
          {
            OFFSET 0 0 0
          }
        }
      }
    }
  }
  JOINT RightUpLeg
  {
    OFFSET -8.2249 1.95398 -2.59336
    CHANNELS 3 Zrotation Xrotation Yrotation
    JOINT RightLeg
    {
      OFFSET 43.5653 0 0
      CHANNELS 3 Zrotation Xrotation Yrotation
      JOINT RightFoot
      {
        OFFSET 40.6238 0 0
        CHANNELS 3 Zrotation Xrotation Yrotation
        JOINT RightToeBase
        {
          OFFSET 12.7242 0 0
          CHANNELS 3 Zrotation Xrotation Yrotation
          End Site
          {
            OFFSET 0 0 0
          }
        }
      }
    }
  }
  JOINT Spine
  {
    OFFSET 0.165834 0.87714 6.61349
    CHANNELS 3 Zrotation Xrotation Yrotation
    JOINT Spine1
    {
      OFFSET 7.38963 1.71661e-005 0
      CHANNELS 3 Zrotation Xrotation Yrotation
      JOINT Spine2
      {
        OFFSET 11.9445 1.14441e-005 0
        CHANNELS 3 Zrotation Xrotation Yrotation
        JOINT Spine3
        {
          OFFSET 14.7254 4.19617e-005 0
          CHANNELS 3 Zrotation Xrotation Yrotation
          JOINT Spine4
          {
            OFFSET 10.9679 0 0
            CHANNELS 3 Zrotation Xrotation Yrotation
            JOINT RightShoulder
            {
              OFFSET 2.46616 -1.6653 3.69651
              CHANNELS 3 Zrotation Xrotation Yrotation
              JOINT RightArm
              {
                OFFSET 13.0012 0 0
                CHANNELS 3 Zrotation Xrotation Yrotation
                JOINT RightForeArm
                {
                  OFFSET 28.7848 1.52588e-005 0
                  CHANNELS 3 Zrotation Xrotation Yrotation
                  JOINT RightHand
                  {
                    OFFSET 26.5688 1.52588e-005 0
                    CHANNELS 3 Zrotation Xrotation Yrotation
                    End Site
                    {
                      OFFSET 0 0 0
                    }
                  }
                }
              }
            }
            JOINT LeftShoulder
            {
              OFFSET 2.38034 -1.29275 -3.7523
              CHANNELS 3 Zrotation Xrotation Yrotation
              JOINT LeftArm
              {
                OFFSET 16.3182 6.10351e-005 0
                CHANNELS 3 Zrotation Xrotation Yrotation
                JOINT LeftForeArm
                {
                  OFFSET 27.0901 0 0
                  CHANNELS 3 Zrotation Xrotation Yrotation
                  JOINT LeftHand
                  {
                    OFFSET 24.5451 1.52588e-005 0
                    CHANNELS 3 Zrotation Xrotation Yrotation
                    End Site
                    {
                      OFFSET 0 0 0
                    }
                  }
                }
              }
            }
            JOINT Neck
            {
              OFFSET 5.0226 -0.0266342 0
              CHANNELS 3 Zrotation Xrotation Yrotation
              JOINT Head
              {
                OFFSET 6.69363 2.86102e-005 0
                CHANNELS 3 Zrotation Xrotation Yrotation
                End Site
                {
                  OFFSET 0 0 0
                }
              }
            }
          }
        }
      }
    }
  }
}
MOTION
Frames:	17
Frame Time:	0.0416667
-224.04 58.4448 -195.838 83.3778 -12.8377 91.4811 175.93 27.1696 103.951 -106.49 25.1241 2.38676 52.1272 1.93422 9.57546 66.7528 46.2517 32.5693 120.386 61.2231 127.263 -111.47 4.5022 -1.95992 102.051 -18.7674 -5.51898 44.9565 0.00777198 -10.3858 1.08922 11.635 -91.6265 3.6135 1.52563 -3.18053 -8.0606 1.38421 -3.24452 -30.5807 2.41067 -2.57554 -10.5681 2.41069 -2.57553 102.144 -26.0254 -82.1321 26.5717 -6.90223 -23.5853 -15.7162 -32.0821 -53.2141 32.867 -6.08425 -20.2673 -81.1922 -22.511 89.4968 -50.3868 -4.11701 2.41707 3.53225 -1.42382 -81.012 34.8621 -2.87645 -12.6275 12.7633 -19.3246 17.3916 19.8963 -26.3589 -19.7106 
-223.754 59.5696 -196.14 81.6437 -10.1231 94.1967 172.222 27.5782 106.261 -104.826 23.9452 3.16884 53.6512 3.38691 10.2765 67.6094 52.7538 39.1912 114.545 58.6849 129.894 -109.654 2.30094 -1.85811 98.914 -17.4742 -5.67548 41.8394 0.691109 0.40025 0.755477 10.6978 -92.3415 5.46352 0.536256 -4.61728 -6.21559 0.33273 -4.63635 -28.6937 1.8979 -4.24389 -8.68103 1.89788 -4.24391 93.1701 -33.0911 -99.5523 6.71629 -12.2565 -8.06543 -1.32004 -31.6382 -49.094 9.21433 -1.56354 -17.0146 -92.5146 -39.4766 71.8483 -28.5556 -17.8591 16.5011 0.0146719 1.26544 -104.488 36.8335 0.743343 -2.0117 7.3827 -18.9789 19.876 20.8155 -25.7067 -18.2589 
-222.841 60.8707 -195.965 82.5927 -11.958 95.4263 173.408 23.5846 105.616 -102.851 23.6055 3.6615 74.7639 16.7353 -1.87379 39.2426 24.7054 80.2413 116.924 57.1738 128.164 -108.737 0.754876 -1.98936 94.809 -15.7478 -5.87512 42.1317 0.677979 0.235255 0.77772 10.3126 -92.406 6.23519 0.537423 -4.75245 -5.44441 0.327991 -4.77144 -27.9191 1.93955 -4.37257 -7.9064 1.93954 -4.37258 88.1089 -39.254 -106.968 -1.03475 -17.5086 -0.261927 -3.68034 -29.4051 -53.6024 -1.93391 -0.386046 -3.77808 -98.0198 -45.6568 65.3248 -16.9669 -24.2957 20.4719 -1.81819 5.28841 -116.062 35.0039 0.530059 -2.53644 3.29277 -18.5938 17.2805 22.1993 -23.898 -14.9272 
-220.454 61.3916 -194.095 81.5947 -17.083 91.1993 179.852 20.1037 100.151 -97.4215 21.4874 3.51145 56.8817 7.36793 13.2975 62.2638 42.402 35.608 128.305 60.633 123.397 -109.611 -0.136051 -2.35665 95.9986 -16.1658 -4.85473 42.3332 0.464464 -4.00158 0.928698 9.79442 -91.8598 7.28817 1.05223 -3.71721 -4.38776 0.887722 -3.75984 -26.8924 2.12022 -3.22998 -6.87973 2.12023 -3.22997 89.1155 -39.0723 -105.242 2.26164 -17.8322 1.38603 -9.07909 -30.8415 -56.4733 -5.60561 -0.69792 2.23674 -97.4052 -45.6216 66.2656 -16.2601 -25.401 15.4847 1.57582 3.89688 -121.089 34.4669 0.530324 -2.5066 -0.595839 -17.7983 14.6805 23.0527 -21.8614 -12.2071 
-217.36 62.1911 -191.079 76.9266 -21.1336 84.5866 -175.239 17.5257 95.0894 -89.6512 20.1794 2.85173 57.5185 7.2135 13.7239 60.6096 40.1284 35.2214 133.051 66.7892 123.296 -112.158 -0.27603 -2.61649 89.4031 -14.0511 -4.88854 47.7629 0.625309 -3.1868 0.964532 8.98502 -91.2732 8.91272 1.35707 -2.61254 -2.76027 1.24081 -2.6697 -25.2865 2.07935 -2.08422 -5.27385 2.07933 -2.08423 90.4314 -39.4788 -102.823 5.09994 -17.0377 2.56461 -10.1658 -28.5071 -56.932 -6.75201 -0.713114 1.80547 -97.6104 -44.8961 65.6866 -15.9481 -27.8637 12.4262 2.80266 3.53782 -124.144 33.94 -0.000996287 -4.09683 -3.84702 -16.6274 12.2657 24.3383 -19.4609 -8.54698 
-213.703 63.5599 -188.286 76.1239 -21.1115 83.0742 -174.849 11.48 94.4278 -81.1469 20.7334 3.32691 58.5042 7.03426 13.0274 59.9354 39.1451 35.0544 136.83 65.9685 118.453 -112.674 -0.943567 -2.5211 83.4438 -11.8852 -4.83296 53.2189 1.18903 -0.242366 0.516663 8.56549 -91.2119 9.74213 0.481603 -2.44342 -1.93104 0.37363 -2.46224 -24.4516 1.19349 -2.18594 -4.43894 1.19351 -2.18594 91.0142 -40.0627 -101.65 7.99919 -16.6797 4.28949 -10.0116 -25.9025 -57.1651 -9.97162 -0.681535 0.348726 -96.3178 -43.2208 67.0869 -15.828 -32.2819 12.3588 3.48513 4.14017 -127.741 30.7294 0.310726 -3.02637 -5.18442 -15.145 11.9064 23.7841 -17.4923 -7.09957 
-209.696 64.9886 -184.957 73.528 -21.2106 80.4375 -174.763 6.29997 93.8802 -70.4479 23.1016 3.78669 56.3453 3.38087 10.4246 64.1798 39.9292 27.2291 143.729 64.8227 111.862 -111.738 -4.30499 -2.27406 80.775 -10.6702 -4.63754 57.4703 1.03688 -1.90405 0.167306 8.13697 -91.076 10.5935 -0.161479 -2.12282 -1.07922 -0.254719 -2.11367 -23.6008 0.483818 -2.07328 -3.58812 0.48383 -2.07328 92.4455 -40.596 -99.0248 10.5295 -17.3937 4.716 -7.23689 -22.0909 -58.8874 -14.1178 -0.858509 1.30355 -94.6011 -41.5426 69.2339 -16.5022 -31.5056 11.3613 4.88921 2.67208 -129.853 29.3942 0.394234 -2.66162 -4.71292 -13.7589 9.89074 24.0673 -15.3915 -4.39122 
-205.31 66.6976 -181.243 71.0226 -21.0439 78.1635 -174.904 1.17209 94.2188 -58.2787 25.5442 4.49201 52.7767 -1.45952 2.41837 58.9085 36.9179 33.4638 150.279 61.782 105.521 -109.281 -7.79843 -1.83867 79.0349 -9.6206 -4.37938 61.2412 0.561381 -4.87495 -0.103626 7.79024 -91.0162 11.283 -0.679201 -1.9552 -0.389176 -0.764584 -1.92344 -22.9126 -0.0603291 -2.0689 -2.89992 -0.0603134 -2.0689 93.5634 -42.0629 -96.7947 13.6584 -17.4541 7.27374 -8.0874 -18.4633 -62.5534 -17.1708 -0.705039 -0.490038 -94.0405 -42.3647 70.4132 -15.7846 -25.2322 11.4431 6.10436 -0.4787 -130.11 26.2568 0.287852 -2.89415 -2.17015 -12.4236 9.6414 21.8903 -13.8275 -2.98515 
-201.211 68.2779 -177.193 67.8611 -21.6084 74.7978 -174.829 -1.49127 93.4806 -47.55 27.6114 4.12901 44.2707 -8.02453 -6.89774 49.6265 28.0388 42.3947 158.369 58.9733 99.6093 -105.665 -7.57127 -1.28272 80.8646 -10.3212 -4.48803 60.8269 1.28968 -1.50455 -0.152882 7.33824 -90.7944 12.1904 -0.679896 -1.50987 0.518804 -0.745689 -1.47849 -22.0095 -0.194753 -1.64436 -1.99687 -0.194774 -1.64437 95.1768 -44.5075 -93.6466 16.8376 -17.2908 10.2893 -5.35477 -15.5169 -63.9086 -18.7076 -0.410571 -2.52059 -93.7377 -43.1296 71.1439 -18.139 -12.986 12.3212 8.01136 -4.79165 -125.347 23.4297 0.258327 -2.8469 -2.07165 -11.8418 7.77199 20.887 -12.5302 -0.548145 
-197.602 69.784 -173.441 65.6227 -21.5102 72.3443 -174.922 -0.802643 93.5579 -43.1434 28.5041 3.29757 32.6299 -14.4261 -12.7133 45.6233 18.8205 31.5077 163.584 54.9653 96.1467 -101.122 -7.00526 -0.772319 82.0832 -10.5441 -4.42994 61.593 1.37513 -1.25558 -0.282899 7.0973 -90.6359 12.6734 -0.865486 -1.16849 1.00227 -0.916068 -1.12928 -21.5296 -0.47431 -1.37455 -1.5169 -0.474326 -1.37456 95.1764 -47.0049 -93.2764 19.6843 -16.3249 12.4496 -2.01301 -11.2202 -65.2679 -23.5824 -0.499968 -2.52993 -93.6736 -44.8394 71.7753 -21.8384 -1.64713 15.2171 10.4885 -7.21093 -115.739 20.9449 0.408442 -1.95492 -1.76413 -11.0065 7.69412 20.9209 -11.6411 -0.200576 
-194.117 72.1574 -169.743 64.5231 -21.0351 71.1557 -174.584 5.65721 93.4873 -51.4057 23.4111 2.48777 35.6626 -12.8918 -9.96875 38.9868 8.69426 15.5417 166.252 49.0317 94.4973 -94.0942 -6.8115 -0.197997 82.4447 -10.2522 -4.24708 61.4873 1.02584 -2.79883 -0.275928 7.1985 -90.5591 12.472 -0.814224 -1.02305 0.800969 -0.858444 -0.98623 -21.7318 -0.469124 -1.22043 -1.71919 -0.469144 -1.22044 95.5604 -50.1777 -92.2269 19.4496 -15.0146 11.168 -1.85753 -9.4243 -68.2849 -22.6478 -0.432923 -2.87329 -94.6826 -47.329 70.9812 -25.3509 5.28557 16.0869 13.3144 -8.5438 -100.502 17.893 0.384567 -1.71341 0.948695 -11.1123 7.54086 20.5353 -11.8544 -0.132574 
-191.095 74.7069 -166.518 64.1031 -21.2943 70.1886 -174.102 14.2463 92.865 -61.6666 18.6842 1.53104 39.7431 -10.4667 -5.96696 41.6139 11.1061 12.0772 168.519 42.8363 93.123 -86.1636 -5.67496 0.0691362 82.6092 -9.8739 -4.04229 60.277 1.44255 -0.681638 -0.052591 7.47428 -90.5054 11.9229 -0.342614 -0.970578 0.251694 -0.38501 -0.954563 -22.2806 -0.0350814 -1.02866 -2.26791 -0.0351081 -1.02868 95.027 -51.1959 -92.9152 19.8737 -13.8074 9.05106 -1.59727 -6.71633 -74.0445 -26.551 -0.128533 -4.47085 -96.1879 -49.5451 69.4166 -27.079 10.702 15.0379 11.8872 -0.0388343 -84.4807 17.1142 0.578698 -0.480458 4.22512 -11.5368 9.72866 19.0131 -13.1366 -2.01492 
-188.128 77.0898 -163.513 63.7059 -22.1209 69.6523 -173.197 24.1137 91.9333 -71.5249 16.3059 0.730373 43.7358 -7.96679 -1.31924 42.3332 11.9449 13.4553 170.064 35.9641 92.3546 -77.0089 -7.0053 0.297328 80.8785 -9.02183 -3.82635 61.6321 1.06867 -2.61804 0.327547 7.65621 -90.4566 11.5624 0.43796 -0.954779 -0.108788 0.395489 -0.973137 -22.6425 0.704628 -0.779038 -2.62987 0.704649 -0.779033 95.0828 -51.3337 -92.8113 19.2215 -13.1563 5.52232 -4.31573 -5.97232 -83.9246 -20.7743 0.0091917 -5.22504 -97.1383 -49.768 68.0914 -29.5495 15.9675 15.2332 5.90143 0.411908 -66.5647 20.0059 0.562131 -1.07134 4.77989 -12.5835 11.1335 18.2979 -14.672 -3.44845 
-185.035 79.3854 -160.29 62.9281 -23.7655 68.6605 -170.911 34.1214 90.0572 -78.7437 11.3978 0.190376 50.2145 -3.37559 -0.436223 41.2005 10.6792 11.7488 172.562 28.0387 91.7272 -65.6607 -8.54732 -0.445268 79.9877 -8.9105 -3.85397 61.192 0.966551 -3.02982 0.67617 7.81577 -90.3359 11.2466 1.18938 -0.78664 -0.424066 1.1536 -0.838226 -22.9631 1.37081 -0.39276 -2.95041 1.37081 -0.392758 95.3096 -49.377 -92.7269 17.3922 -12.3442 -1.03241 -9.60974 -3.67116 -93.0415 -26.0487 0.31419 -6.38994 -97.8577 -49.5925 66.9783 -32.4948 18.1096 20.673 4.7826 2.80758 -58.5479 21.435 1.00736 0.83595 5.03888 -13.3355 11.5334 18.3797 -15.6436 -4.27675 
-181.934 81.2844 -156.678 61.0409 -24.4276 67.2678 -168.673 44.9338 87.1451 -82.5587 11.794 -0.151196 53.5076 -1.47423 2.50714 41.5826 11.1197 12.5304 173.2 20.9312 91.6428 -52.9379 -9.31125 -0.554121 77.9454 -8.42287 -3.84335 60.7939 1.3892 -1.01832 0.850154 7.82639 -90.1147 11.2242 1.63874 -0.390457 -0.445818 1.61995 -0.46223 -22.9893 1.68029 0.120241 -2.97669 1.68029 0.120231 96.1065 -45.0489 -92.0289 16.2956 -11.7512 -11.0449 -12.5113 0.869762 -104.034 -31.2175 0.227249 -5.6815 -96.9225 -48.149 67.8764 -37.8168 18.0704 31.3187 4.35744 1.76693 -60.8799 19.1411 0.706835 -0.174365 4.5527 -13.8789 8.80114 20.1573 -15.6083 -3.45166 
-178.82 83.1512 -152.924 59.1869 -26.329 65.4114 -164.532 53.6449 83.3247 -82.5111 13.9553 -0.85286 56.7106 0.0758183 3.28992 42.8244 11.8837 8.72198 174.139 13.8554 91.2066 -40.4466 -12.0189 -1.61514 73.0466 -6.80788 -3.44548 59.1842 1.39082 -0.670625 1.20926 7.84583 -89.7906 11.1823 2.50422 0.171259 -0.486285 2.5093 0.0607909 -23.0387 2.33691 0.916363 -3.02604 2.3369 0.916358 97.0816 -38.8429 -91.1669 18.6683 -6.27999 -18.3461 -12.0218 7.51901 -112.891 -26.0192 0.462012 -7.04156 -94.7487 -44.7039 70.0576 -44.9123 18.8003 42.0523 5.16445 1.44299 -64.4651 18.7922 0.633071 -0.495493 3.5585 -14.7234 5.61032 21.5824 -15.7583 -2.60012 
-175.148 85.1 -149.288 57.5751 -28.5121 62.7353 -158.269 58.8326 77.3684 -77.5765 18.893 -2.64806 57.6751 0.0263749 5.01891 44.6278 14.3935 14.8 173.588 7.08593 88.9645 -27.671 -15.0907 -2.31241 62.0366 -2.84945 -1.74219 61.1657 2.64403 4.5166 1.60848 7.94636 -89.3336 10.9685 3.51076 0.991879 -0.697986 3.55101 0.836231 -23.2605 3.05026 2.00193 -3.24788 3.05025 2.00191 96.9777 -32.3132 -92.3157 24.5801 4.38898 -22.2782 -15.9074 6.48098 -120.84 -28.909 0.650026 -7.09377 -93.4402 -39.4977 70.4412 -52.1283 18.4573 50.5556 4.15544 0.495377 -66.0825 16.7424 0.514689 -0.776583 2.81354 -15.7107 4.27675 22.1424 -16.7883 -3.78878 
